<svg width="179" height="199" viewBox="0 0 179 199" fill="none" xmlns="http://www.w3.org/2000/svg">
<rect x="0.5" width="178" height="199" rx="25" fill="#5725E5"/>
<path fill-rule="evenodd" clip-rule="evenodd" d="M119.152 116.631L111.147 115.182L107.176 122.362C104.293 125.966 102.463 120.039 101.659 117.974L93.932 103.257C95.7131 102.634 97.8615 100.835 100.065 98.8125C104.466 98.9035 108.569 98.1336 111.584 94.2565L120.461 111.578L121.231 113.243C121.841 115.406 121.522 116.833 119.152 116.631ZM89.5035 37.5062C91.0074 37.4432 92.1925 37.9681 93.3914 38.7379C94.9092 39.7107 96.621 41.6353 98.7347 42.853C101.708 44.5676 107.211 42.2021 110.024 46.4292C111.667 48.8926 111.743 50.8242 111.868 52.7348C111.999 54.7923 112.36 56.6889 114.446 59.4743C117.904 64.0932 118.625 67.1656 116.844 70.3638C115.631 72.5474 113.074 73.7581 112.485 75.1438C111.223 78.0831 112.616 80.3016 110.898 83.7309C109.699 86.1103 107.855 87.678 105.395 88.4758C103.323 89.1476 101.244 88.1749 99.5802 88.8817C96.6626 90.1204 94.5141 92.9968 92.1925 93.7246C91.2984 94.0046 90.4044 94.1445 89.5104 94.1375C88.6164 94.1445 87.7224 94.0046 86.8283 93.7246C84.5067 92.9968 82.3582 90.1204 79.4405 88.8817C77.7773 88.1749 75.6981 89.1546 73.626 88.4758C71.1657 87.678 69.3222 86.1103 68.1232 83.7309C66.3976 80.3016 67.7906 78.0831 66.5362 75.1438C65.9471 73.7581 63.3898 72.5474 62.177 70.3638C60.382 67.1656 61.1028 64.0932 64.561 59.4813C66.6471 56.6959 67.0074 54.7993 67.1391 52.7418C67.2639 50.8312 67.3401 48.8996 68.9826 46.4362C71.8033 42.2091 77.306 44.5746 80.2722 42.86C82.386 41.6423 84.0978 39.7177 85.6155 38.7449C86.8075 37.9681 87.9996 37.4362 89.5035 37.5062ZM84.6175 62.5466L88.2352 66.0248L94.4587 59.6352C95.0755 59.0054 95.4636 58.5015 96.219 59.2853L98.6862 61.8327C99.4971 62.6446 99.4555 63.1135 98.6932 63.8693L89.6421 72.8553C88.0342 74.4509 88.3114 74.5489 86.6759 72.9113L80.4593 66.6687C80.1197 66.2978 80.1544 65.9198 80.5286 65.5489L83.3909 62.5536C83.8275 62.0917 84.174 62.1197 84.6175 62.5466ZM89.5035 48.8646C98.7763 48.8646 106.296 56.4579 106.296 65.8219C106.296 75.1858 98.7763 82.7791 89.5035 82.7791C80.2306 82.7791 72.7111 75.1858 72.7111 65.8219C72.7111 56.4509 80.2306 48.8646 89.5035 48.8646ZM59.8484 116.631L67.8599 115.182L71.831 122.362C74.714 125.966 76.5436 120.039 77.3476 117.974L85.075 103.257C83.2938 102.634 81.1454 100.835 78.9416 98.8125C74.5408 98.9035 70.438 98.1336 67.4233 94.2565L58.5385 111.578L57.7692 113.243C57.1594 115.406 57.4782 116.833 59.8484 116.631Z" fill="white"/>
<path d="M51.9095 148.59C51.5615 147.858 51.0575 147.294 50.3975 146.898C49.7375 146.49 48.9695 146.286 48.0935 146.286C47.2175 146.286 46.4255 146.49 45.7175 146.898C45.0215 147.294 44.4695 147.87 44.0615 148.626C43.6655 149.37 43.4675 150.234 43.4675 151.218C43.4675 152.202 43.6655 153.066 44.0615 153.81C44.4695 154.554 45.0215 155.13 45.7175 155.538C46.4255 155.934 47.2175 156.132 48.0935 156.132C49.3175 156.132 50.3255 155.766 51.1175 155.034C51.9095 154.302 52.3715 153.312 52.5035 152.064H47.4995V150.732H54.2495V151.992C54.1535 153.024 53.8295 153.972 53.2775 154.836C52.7255 155.688 51.9995 156.366 51.0995 156.87C50.1995 157.362 49.1975 157.608 48.0935 157.608C46.9295 157.608 45.8675 157.338 44.9075 156.798C43.9475 156.246 43.1855 155.484 42.6215 154.512C42.0695 153.54 41.7935 152.442 41.7935 151.218C41.7935 149.994 42.0695 148.896 42.6215 147.924C43.1855 146.94 43.9475 146.178 44.9075 145.638C45.8675 145.086 46.9295 144.81 48.0935 144.81C49.4255 144.81 50.6015 145.14 51.6215 145.8C52.6535 146.46 53.4035 147.39 53.8715 148.59H51.9095ZM65.1633 147.636V157.5H63.5253V156.042C63.2133 156.546 62.7753 156.942 62.2113 157.23C61.6593 157.506 61.0473 157.644 60.3753 157.644C59.6073 157.644 58.9173 157.488 58.3053 157.176C57.6933 156.852 57.2073 156.372 56.8473 155.736C56.4993 155.1 56.3253 154.326 56.3253 153.414V147.636H57.9453V153.198C57.9453 154.17 58.1913 154.92 58.6833 155.448C59.1753 155.964 59.8473 156.222 60.6993 156.222C61.5753 156.222 62.2653 155.952 62.7693 155.412C63.2733 154.872 63.5253 154.086 63.5253 153.054V147.636H65.1633ZM67.317 152.532C67.317 151.524 67.521 150.642 67.929 149.886C68.337 149.118 68.895 148.524 69.603 148.104C70.323 147.684 71.121 147.474 71.997 147.474C72.861 147.474 73.611 147.66 74.247 148.032C74.883 148.404 75.357 148.872 75.669 149.436V147.636H77.325V157.5H75.669V155.664C75.345 156.24 74.859 156.72 74.211 157.104C73.575 157.476 72.831 157.662 71.979 157.662C71.103 157.662 70.311 157.446 69.603 157.014C68.895 156.582 68.337 155.976 67.929 155.196C67.521 154.416 67.317 153.528 67.317 152.532ZM75.669 152.55C75.669 151.806 75.519 151.158 75.219 150.606C74.919 150.054 74.511 149.634 73.995 149.346C73.491 149.046 72.933 148.896 72.321 148.896C71.709 148.896 71.151 149.04 70.647 149.328C70.143 149.616 69.741 150.036 69.441 150.588C69.141 151.14 68.991 151.788 68.991 152.532C68.991 153.288 69.141 153.948 69.441 154.512C69.741 155.064 70.143 155.49 70.647 155.79C71.151 156.078 71.709 156.222 72.321 156.222C72.933 156.222 73.491 156.078 73.995 155.79C74.511 155.49 74.919 155.064 75.219 154.512C75.519 153.948 75.669 153.294 75.669 152.55ZM81.731 149.238C82.019 148.674 82.427 148.236 82.955 147.924C83.495 147.612 84.149 147.456 84.917 147.456V149.148H84.485C82.649 149.148 81.731 150.144 81.731 152.136V157.5H80.093V147.636H81.731V149.238ZM86.1959 152.532C86.1959 151.524 86.3999 150.642 86.8079 149.886C87.2159 149.118 87.7739 148.524 88.4819 148.104C89.2019 147.684 89.9999 147.474 90.8759 147.474C91.7399 147.474 92.4899 147.66 93.1259 148.032C93.7619 148.404 94.2359 148.872 94.5479 149.436V147.636H96.2039V157.5H94.5479V155.664C94.2239 156.24 93.7379 156.72 93.0899 157.104C92.4539 157.476 91.7099 157.662 90.8579 157.662C89.9819 157.662 89.1899 157.446 88.4819 157.014C87.7739 156.582 87.2159 155.976 86.8079 155.196C86.3999 154.416 86.1959 153.528 86.1959 152.532ZM94.5479 152.55C94.5479 151.806 94.3979 151.158 94.0979 150.606C93.7979 150.054 93.3899 149.634 92.8739 149.346C92.3699 149.046 91.8119 148.896 91.1999 148.896C90.5879 148.896 90.0299 149.04 89.5259 149.328C89.0219 149.616 88.6199 150.036 88.3199 150.588C88.0199 151.14 87.8699 151.788 87.8699 152.532C87.8699 153.288 88.0199 153.948 88.3199 154.512C88.6199 155.064 89.0219 155.49 89.5259 155.79C90.0299 156.078 90.5879 156.222 91.1999 156.222C91.8119 156.222 92.3699 156.078 92.8739 155.79C93.3899 155.49 93.7979 155.064 94.0979 154.512C94.3979 153.948 94.5479 153.294 94.5479 152.55ZM103.778 147.456C104.978 147.456 105.95 147.822 106.694 148.554C107.438 149.274 107.81 150.318 107.81 151.686V157.5H106.19V151.92C106.19 150.936 105.944 150.186 105.452 149.67C104.96 149.142 104.288 148.878 103.436 148.878C102.572 148.878 101.882 149.148 101.366 149.688C100.862 150.228 100.61 151.014 100.61 152.046V157.5H98.9719V147.636H100.61V149.04C100.934 148.536 101.372 148.146 101.924 147.87C102.488 147.594 103.106 147.456 103.778 147.456ZM112.484 148.986V154.8C112.484 155.28 112.586 155.622 112.79 155.826C112.994 156.018 113.348 156.114 113.852 156.114H115.058V157.5H113.582C112.67 157.5 111.986 157.29 111.53 156.87C111.074 156.45 110.846 155.76 110.846 154.8V148.986H109.568V147.636H110.846V145.152H112.484V147.636H115.058V148.986H112.484ZM126.042 152.19C126.042 152.502 126.024 152.832 125.988 153.18H118.104C118.164 154.152 118.494 154.914 119.094 155.466C119.706 156.006 120.444 156.276 121.308 156.276C122.016 156.276 122.604 156.114 123.072 155.79C123.552 155.454 123.888 155.01 124.08 154.458H125.844C125.58 155.406 125.052 156.18 124.26 156.78C123.468 157.368 122.484 157.662 121.308 157.662C120.372 157.662 119.532 157.452 118.788 157.032C118.056 156.612 117.48 156.018 117.06 155.25C116.64 154.47 116.43 153.57 116.43 152.55C116.43 151.53 116.634 150.636 117.042 149.868C117.45 149.1 118.02 148.512 118.752 148.104C119.496 147.684 120.348 147.474 121.308 147.474C122.244 147.474 123.072 147.678 123.792 148.086C124.512 148.494 125.064 149.058 125.448 149.778C125.844 150.486 126.042 151.29 126.042 152.19ZM124.35 151.848C124.35 151.224 124.212 150.69 123.936 150.246C123.66 149.79 123.282 149.448 122.802 149.22C122.334 148.98 121.812 148.86 121.236 148.86C120.408 148.86 119.7 149.124 119.112 149.652C118.536 150.18 118.206 150.912 118.122 151.848H124.35ZM137.204 152.19C137.204 152.502 137.186 152.832 137.15 153.18H129.266C129.326 154.152 129.656 154.914 130.256 155.466C130.868 156.006 131.606 156.276 132.47 156.276C133.178 156.276 133.766 156.114 134.234 155.79C134.714 155.454 135.05 155.01 135.242 154.458H137.006C136.742 155.406 136.214 156.18 135.422 156.78C134.63 157.368 133.646 157.662 132.47 157.662C131.534 157.662 130.694 157.452 129.95 157.032C129.218 156.612 128.642 156.018 128.222 155.25C127.802 154.47 127.592 153.57 127.592 152.55C127.592 151.53 127.796 150.636 128.204 149.868C128.612 149.1 129.182 148.512 129.914 148.104C130.658 147.684 131.51 147.474 132.47 147.474C133.406 147.474 134.234 147.678 134.954 148.086C135.674 148.494 136.226 149.058 136.61 149.778C137.006 150.486 137.204 151.29 137.204 152.19ZM135.512 151.848C135.512 151.224 135.374 150.69 135.098 150.246C134.822 149.79 134.444 149.448 133.964 149.22C133.496 148.98 132.974 148.86 132.398 148.86C131.57 148.86 130.862 149.124 130.274 149.652C129.698 150.18 129.368 150.912 129.284 151.848H135.512Z" fill="white"/>
</svg>
