<svg width="179" height="199" viewBox="0 0 179 199" fill="none" xmlns="http://www.w3.org/2000/svg">
<rect x="0.5" width="178" height="199" rx="25" fill="#7743DB"/>
<path fill-rule="evenodd" clip-rule="evenodd" d="M119.28 42.7565C119.766 42.6856 120.261 42.7792 120.686 43.0224C121.065 43.1895 121.387 43.462 121.614 43.8071C121.841 44.1522 121.963 44.5552 121.965 44.9677L122.106 64.6725H122.043H121.979H121.944H121.909H121.874H121.009H118.212H118.149H118.085H118.022H117.959L117.846 48.9142L104.491 57.3112V86.5535C103.386 87.3246 102.233 88.0257 101.04 88.6527L100.189 87.3792V57.5981L82.7715 55.4079L82.1318 73.9651L75.2223 69.2698L68.3057 73.1604L69.7115 53.7495L57.9731 52.259V92.0325L85.7377 95.1044L84.9013 99.3028L55.7168 96.091C55.1648 96.064 54.6444 95.8266 54.2636 95.4279C53.8827 95.0293 53.6706 94.4999 53.6713 93.9498V49.8659C53.6651 49.4435 53.7837 49.0287 54.0124 48.6728C54.2411 48.317 54.5698 48.036 54.9576 47.8646L78.1253 37.6903C78.484 37.5291 78.8802 37.4686 79.271 37.5154L119.28 42.7565ZM87.9027 117.475L93.6594 88.3588L99.4935 97.1126C112.061 92.0955 119.119 83.8105 120.166 71.0611C130.492 89.0306 124.222 105.139 111.141 114.571L117.094 123.5L87.9027 117.475ZM99.0858 44.4289L86.4336 51.5732L101.771 53.5185L113.313 46.2832L99.0858 44.4289ZM73.1276 49.8799L85.4003 42.6375L79.3132 41.8468L63.6877 48.7113L73.1276 49.9079V49.8799Z" fill="white"/>
<path d="M27.5444 145.98V144.486H30.9284V157.5H29.2724V145.98H27.5444ZM42.04 145.908H35.722V150.012C35.998 149.628 36.406 149.316 36.946 149.076C37.486 148.824 38.068 148.698 38.692 148.698C39.688 148.698 40.498 148.908 41.122 149.328C41.746 149.736 42.19 150.27 42.454 150.93C42.73 151.578 42.868 152.268 42.868 153C42.868 153.864 42.706 154.638 42.382 155.322C42.058 156.006 41.56 156.546 40.888 156.942C40.228 157.338 39.406 157.536 38.422 157.536C37.162 157.536 36.142 157.212 35.362 156.564C34.582 155.916 34.108 155.052 33.94 153.972H35.542C35.698 154.656 36.028 155.19 36.532 155.574C37.036 155.958 37.672 156.15 38.44 156.15C39.388 156.15 40.102 155.868 40.582 155.304C41.062 154.728 41.302 153.972 41.302 153.036C41.302 152.1 41.062 151.38 40.582 150.876C40.102 150.36 39.394 150.102 38.458 150.102C37.822 150.102 37.264 150.258 36.784 150.57C36.316 150.87 35.974 151.284 35.758 151.812H34.21V144.468H42.04V145.908ZM54.0195 144.954C55.3875 144.954 56.5695 145.212 57.5655 145.728C58.5735 146.232 59.3415 146.958 59.8695 147.906C60.4095 148.854 60.6795 149.97 60.6795 151.254C60.6795 152.538 60.4095 153.654 59.8695 154.602C59.3415 155.538 58.5735 156.258 57.5655 156.762C56.5695 157.254 55.3875 157.5 54.0195 157.5H50.1135V144.954H54.0195ZM54.0195 156.15C55.6395 156.15 56.8755 155.724 57.7275 154.872C58.5795 154.008 59.0055 152.802 59.0055 151.254C59.0055 149.694 58.5735 148.476 57.7095 147.6C56.8575 146.724 55.6275 146.286 54.0195 146.286H51.7515V156.15H54.0195ZM62.2281 152.532C62.2281 151.524 62.4321 150.642 62.8401 149.886C63.2481 149.118 63.8061 148.524 64.5141 148.104C65.2341 147.684 66.0321 147.474 66.9081 147.474C67.7721 147.474 68.5221 147.66 69.1581 148.032C69.7941 148.404 70.2681 148.872 70.5801 149.436V147.636H72.2361V157.5H70.5801V155.664C70.2561 156.24 69.7701 156.72 69.1221 157.104C68.4861 157.476 67.7421 157.662 66.8901 157.662C66.0141 157.662 65.2221 157.446 64.5141 157.014C63.8061 156.582 63.2481 155.976 62.8401 155.196C62.4321 154.416 62.2281 153.528 62.2281 152.532ZM70.5801 152.55C70.5801 151.806 70.4301 151.158 70.1301 150.606C69.8301 150.054 69.4221 149.634 68.9061 149.346C68.4021 149.046 67.8441 148.896 67.2321 148.896C66.6201 148.896 66.0621 149.04 65.5581 149.328C65.0541 149.616 64.6521 150.036 64.3521 150.588C64.0521 151.14 63.9021 151.788 63.9021 152.532C63.9021 153.288 64.0521 153.948 64.3521 154.512C64.6521 155.064 65.0541 155.49 65.5581 155.79C66.0621 156.078 66.6201 156.222 67.2321 156.222C67.8441 156.222 68.4021 156.078 68.9061 155.79C69.4221 155.49 69.8301 155.064 70.1301 154.512C70.4301 153.948 70.5801 153.294 70.5801 152.55ZM83.5002 147.636L77.5602 162.144H75.8682L77.8122 157.392L73.8342 147.636H75.6522L78.7482 155.628L81.8082 147.636H83.5002ZM88.6387 157.662C87.8827 157.662 87.2047 157.536 86.6047 157.284C86.0047 157.02 85.5307 156.66 85.1827 156.204C84.8347 155.736 84.6427 155.202 84.6067 154.602H86.2987C86.3467 155.094 86.5747 155.496 86.9827 155.808C87.4027 156.12 87.9487 156.276 88.6207 156.276C89.2447 156.276 89.7367 156.138 90.0967 155.862C90.4567 155.586 90.6367 155.238 90.6367 154.818C90.6367 154.386 90.4447 154.068 90.0607 153.864C89.6767 153.648 89.0827 153.438 88.2787 153.234C87.5467 153.042 86.9467 152.85 86.4787 152.658C86.0227 152.454 85.6267 152.16 85.2907 151.776C84.9667 151.38 84.8047 150.864 84.8047 150.228C84.8047 149.724 84.9547 149.262 85.2547 148.842C85.5547 148.422 85.9807 148.092 86.5327 147.852C87.0847 147.6 87.7147 147.474 88.4227 147.474C89.5147 147.474 90.3967 147.75 91.0687 148.302C91.7407 148.854 92.1007 149.61 92.1487 150.57H90.5107C90.4747 150.054 90.2647 149.64 89.8807 149.328C89.5087 149.016 89.0047 148.86 88.3687 148.86C87.7807 148.86 87.3127 148.986 86.9647 149.238C86.6167 149.49 86.4427 149.82 86.4427 150.228C86.4427 150.552 86.5447 150.822 86.7487 151.038C86.9647 151.242 87.2287 151.41 87.5407 151.542C87.8647 151.662 88.3087 151.8 88.8727 151.956C89.5807 152.148 90.1567 152.34 90.6007 152.532C91.0447 152.712 91.4227 152.988 91.7347 153.36C92.0587 153.732 92.2267 154.218 92.2387 154.818C92.2387 155.358 92.0887 155.844 91.7887 156.276C91.4887 156.708 91.0627 157.05 90.5107 157.302C89.9707 157.542 89.3467 157.662 88.6387 157.662ZM100.988 149.238C101.276 148.674 101.684 148.236 102.212 147.924C102.752 147.612 103.406 147.456 104.174 147.456V149.148H103.742C101.906 149.148 100.988 150.144 100.988 152.136V157.5H99.3499V147.636H100.988V149.238ZM115.065 152.19C115.065 152.502 115.047 152.832 115.011 153.18H107.127C107.187 154.152 107.517 154.914 108.117 155.466C108.729 156.006 109.467 156.276 110.331 156.276C111.039 156.276 111.627 156.114 112.095 155.79C112.575 155.454 112.911 155.01 113.103 154.458H114.867C114.603 155.406 114.075 156.18 113.283 156.78C112.491 157.368 111.507 157.662 110.331 157.662C109.395 157.662 108.555 157.452 107.811 157.032C107.079 156.612 106.503 156.018 106.083 155.25C105.663 154.47 105.453 153.57 105.453 152.55C105.453 151.53 105.657 150.636 106.065 149.868C106.473 149.1 107.043 148.512 107.775 148.104C108.519 147.684 109.371 147.474 110.331 147.474C111.267 147.474 112.095 147.678 112.815 148.086C113.535 148.494 114.087 149.058 114.471 149.778C114.867 150.486 115.065 151.29 115.065 152.19ZM113.373 151.848C113.373 151.224 113.235 150.69 112.959 150.246C112.683 149.79 112.305 149.448 111.825 149.22C111.357 148.98 110.835 148.86 110.259 148.86C109.431 148.86 108.723 149.124 108.135 149.652C107.559 150.18 107.229 150.912 107.145 151.848H113.373ZM119.225 148.986V154.8C119.225 155.28 119.327 155.622 119.531 155.826C119.735 156.018 120.089 156.114 120.593 156.114H121.799V157.5H120.323C119.411 157.5 118.727 157.29 118.271 156.87C117.815 156.45 117.587 155.76 117.587 154.8V148.986H116.309V147.636H117.587V145.152H119.225V147.636H121.799V148.986H119.225ZM132.531 147.636V157.5H130.893V156.042C130.581 156.546 130.143 156.942 129.579 157.23C129.027 157.506 128.415 157.644 127.743 157.644C126.975 157.644 126.285 157.488 125.673 157.176C125.061 156.852 124.575 156.372 124.215 155.736C123.867 155.1 123.693 154.326 123.693 153.414V147.636H125.313V153.198C125.313 154.17 125.559 154.92 126.051 155.448C126.543 155.964 127.215 156.222 128.067 156.222C128.943 156.222 129.633 155.952 130.137 155.412C130.641 154.872 130.893 154.086 130.893 153.054V147.636H132.531ZM136.935 149.238C137.223 148.674 137.631 148.236 138.159 147.924C138.699 147.612 139.353 147.456 140.121 147.456V149.148H139.689C137.853 149.148 136.935 150.144 136.935 152.136V157.5H135.297V147.636H136.935V149.238ZM146.818 147.456C148.018 147.456 148.99 147.822 149.734 148.554C150.478 149.274 150.85 150.318 150.85 151.686V157.5H149.23V151.92C149.23 150.936 148.984 150.186 148.492 149.67C148 149.142 147.328 148.878 146.476 148.878C145.612 148.878 144.922 149.148 144.406 149.688C143.902 150.228 143.65 151.014 143.65 152.046V157.5H142.012V147.636H143.65V149.04C143.974 148.536 144.412 148.146 144.964 147.87C145.528 147.594 146.146 147.456 146.818 147.456Z" fill="white"/>
</svg>
