<svg width="179" height="199" viewBox="0 0 179 199" fill="none" xmlns="http://www.w3.org/2000/svg">
<rect x="0.5" width="178" height="199" rx="25" fill="#5725E5"/>
<path fill-rule="evenodd" clip-rule="evenodd" d="M132.465 61.6405L115.638 61.5373V50.1478C115.638 48.4503 114.943 46.9133 113.849 45.8122C112.744 44.6997 111.228 44 109.531 44H46.2301C44.5439 44 43.0172 44.6997 41.9235 45.8008C40.8183 46.9133 40.1347 48.4388 40.1347 50.1363C40.1347 51.0768 40.8639 51.7994 41.7867 51.7994C42.7096 51.7994 43.4388 51.0654 43.4388 50.1363C43.4388 49.3679 43.7464 48.6453 44.2705 48.1521C44.7832 47.6359 45.4781 47.3148 46.2415 47.3148H109.542C110.306 47.3148 110.989 47.6244 111.513 48.1521C112.026 48.6682 112.345 49.3679 112.345 50.1363V102.324H99.277C98.3427 102.324 97.625 103.058 97.625 103.987C97.625 104.893 98.3541 105.65 99.277 105.65H113.986C114.92 105.65 115.638 104.916 115.638 103.987V102.071H125.641C126.404 84.7062 151.128 82.3205 153.645 102.071H159.091C159.809 98.2176 159.547 93.7215 158.545 88.7665C157.382 82.9857 157.724 84.1098 152.358 82.0338L141.421 77.1018L132.465 61.6405ZM40.4651 80.0839C41.388 80.0839 42.1285 80.8409 42.1285 81.7585C42.1285 82.6875 41.3766 83.4331 40.4651 83.4331H28.639C27.7161 83.4331 26.9755 82.6761 26.9755 81.7585C26.9755 80.8294 27.7275 80.0839 28.639 80.0839H40.4651ZM40.4651 69.1073C41.388 69.1073 42.1285 69.8643 42.1285 70.7819C42.1285 71.711 41.3766 72.4565 40.4651 72.4565H25.5058C24.583 72.4565 23.8424 71.6995 23.8424 70.7819C23.8424 69.8529 24.5944 69.1073 25.5058 69.1073H40.4651ZM40.4651 58.1308C41.388 58.1308 42.1285 58.8878 42.1285 59.8053C42.1285 60.7344 41.3766 61.4799 40.4651 61.4799H21.165C20.2535 61.4914 19.5016 60.7344 19.5016 59.8168C19.5016 58.8878 20.2535 58.1422 21.165 58.1422H40.4651V58.1308ZM93.6373 57.7637H104.552V62.6269H100.188V67.2836H104.267V71.9059H100.188V77.2623H104.996V82.1255H93.6373V57.7637ZM79.8515 57.7637H90.7662V62.6269H86.4026V67.2836H90.4814V71.9059H86.4026V77.2623H91.2106V82.1255H79.8515V57.7637ZM62.1578 57.7637H66.7835C69.8711 57.7637 71.956 57.8784 73.0498 58.1078C74.1435 58.3372 75.0322 58.9336 75.7272 59.8742C76.4222 60.8147 76.764 62.3287 76.764 64.4047C76.764 66.2972 76.5247 67.5704 76.0348 68.2242C75.5563 68.8779 74.5878 69.2679 73.1637 69.3941C74.4625 69.7038 75.3284 70.1281 75.7727 70.6443C76.2171 71.1604 76.4905 71.6421 76.6044 72.078C76.7184 72.5138 76.764 73.7182 76.764 75.6795V82.114H70.6914V74.0049C70.6914 72.6974 70.5888 71.8945 70.3724 71.5848C70.1673 71.2751 69.609 71.1145 68.7203 71.1145V82.114H62.1692V57.7637H62.1578ZM68.7089 61.9272V67.3525C69.4381 67.3525 69.9508 67.2607 70.247 67.0542C70.5433 66.8593 70.6914 66.2169 70.6914 65.1503V63.8083C70.6914 63.0283 70.5433 62.5237 70.2698 62.2828C69.9736 62.0419 69.4609 61.9272 68.7089 61.9272ZM48.9303 57.7637H60.0045V62.6269H55.4814V67.2836H59.4918V71.9059H55.4814V82.137H48.9303V57.7637ZM65.1998 102.335C66.0999 102.335 66.8518 103.069 66.8518 103.998C66.8518 104.904 66.1227 105.661 65.1998 105.661H46.2643C44.5781 105.661 43.0514 104.927 41.9576 103.792C40.8525 102.645 40.1689 101.051 40.1689 99.3875V92.7236C40.1689 91.8175 40.8981 91.0605 41.8209 91.0605C42.7552 91.0605 43.4729 91.7945 43.4729 92.7236V99.3875C43.4729 100.19 43.8147 100.947 44.3388 101.509C44.8515 102.026 45.5123 102.381 46.2757 102.381L65.1998 102.335ZM82.0276 91.4275C75.8183 91.4275 70.8167 96.4971 70.8167 102.714C70.8167 108.965 75.8525 114 82.0276 114C88.2369 114 93.2386 108.93 93.2386 102.714C93.2386 96.4627 88.2028 91.4275 82.0276 91.4275ZM82.0276 98.3782C79.6464 98.3782 77.721 100.328 77.721 102.714C77.721 105.111 79.6578 107.049 82.0276 107.049C84.4088 107.049 86.3343 105.099 86.3343 102.714C86.3457 100.317 84.4088 98.3782 82.0276 98.3782ZM139.643 91.4275C133.434 91.4275 128.432 96.4971 128.432 102.714C128.432 108.965 133.468 114 139.643 114C145.852 114 150.854 108.93 150.854 102.714C150.854 96.4627 145.818 91.4275 139.643 91.4275ZM139.643 98.3782C137.262 98.3782 135.337 100.328 135.337 102.714C135.337 105.111 137.273 107.049 139.643 107.049C142.024 107.049 143.95 105.099 143.95 102.714C143.95 100.317 142.024 98.3782 139.643 98.3782ZM128.159 66.4005L119.808 66.2972V77.1247H133.81L128.159 66.4005Z" fill="white"/>
<path d="M37.6323 135.454V136.786H32.1783V141.016H36.6063V142.348H32.1783V148H30.5403V135.454H37.6323ZM41.2486 139.738C41.5366 139.174 41.9446 138.736 42.4726 138.424C43.0126 138.112 43.6666 137.956 44.4346 137.956V139.648H44.0026C42.1666 139.648 41.2486 140.644 41.2486 142.636V148H39.6106V138.136H41.2486V139.738ZM55.3255 142.69C55.3255 143.002 55.3075 143.332 55.2715 143.68H47.3875C47.4475 144.652 47.7775 145.414 48.3775 145.966C48.9895 146.506 49.7275 146.776 50.5915 146.776C51.2995 146.776 51.8875 146.614 52.3555 146.29C52.8355 145.954 53.1715 145.51 53.3635 144.958H55.1275C54.8635 145.906 54.3355 146.68 53.5435 147.28C52.7515 147.868 51.7675 148.162 50.5915 148.162C49.6555 148.162 48.8155 147.952 48.0715 147.532C47.3395 147.112 46.7635 146.518 46.3435 145.75C45.9235 144.97 45.7135 144.07 45.7135 143.05C45.7135 142.03 45.9175 141.136 46.3255 140.368C46.7335 139.6 47.3035 139.012 48.0355 138.604C48.7795 138.184 49.6315 137.974 50.5915 137.974C51.5275 137.974 52.3555 138.178 53.0755 138.586C53.7955 138.994 54.3475 139.558 54.7315 140.278C55.1275 140.986 55.3255 141.79 55.3255 142.69ZM53.6335 142.348C53.6335 141.724 53.4955 141.19 53.2195 140.746C52.9435 140.29 52.5655 139.948 52.0855 139.72C51.6175 139.48 51.0955 139.36 50.5195 139.36C49.6915 139.36 48.9835 139.624 48.3955 140.152C47.8195 140.68 47.4895 141.412 47.4055 142.348H53.6335ZM66.4876 142.69C66.4876 143.002 66.4696 143.332 66.4336 143.68H58.5496C58.6096 144.652 58.9396 145.414 59.5396 145.966C60.1516 146.506 60.8896 146.776 61.7536 146.776C62.4616 146.776 63.0496 146.614 63.5176 146.29C63.9976 145.954 64.3336 145.51 64.5256 144.958H66.2896C66.0256 145.906 65.4976 146.68 64.7056 147.28C63.9136 147.868 62.9296 148.162 61.7536 148.162C60.8176 148.162 59.9776 147.952 59.2336 147.532C58.5016 147.112 57.9256 146.518 57.5056 145.75C57.0856 144.97 56.8756 144.07 56.8756 143.05C56.8756 142.03 57.0796 141.136 57.4876 140.368C57.8956 139.6 58.4656 139.012 59.1976 138.604C59.9416 138.184 60.7936 137.974 61.7536 137.974C62.6896 137.974 63.5176 138.178 64.2376 138.586C64.9576 138.994 65.5096 139.558 65.8936 140.278C66.2896 140.986 66.4876 141.79 66.4876 142.69ZM64.7956 142.348C64.7956 141.724 64.6576 141.19 64.3816 140.746C64.1056 140.29 63.7276 139.948 63.2476 139.72C62.7796 139.48 62.2576 139.36 61.6816 139.36C60.8536 139.36 60.1456 139.624 59.5576 140.152C58.9816 140.68 58.6516 141.412 58.5676 142.348H64.7956ZM76.9405 148.162C76.1845 148.162 75.5065 148.036 74.9065 147.784C74.3065 147.52 73.8325 147.16 73.4845 146.704C73.1365 146.236 72.9445 145.702 72.9085 145.102H74.6005C74.6485 145.594 74.8765 145.996 75.2845 146.308C75.7045 146.62 76.2505 146.776 76.9225 146.776C77.5465 146.776 78.0385 146.638 78.3985 146.362C78.7585 146.086 78.9385 145.738 78.9385 145.318C78.9385 144.886 78.7465 144.568 78.3625 144.364C77.9785 144.148 77.3845 143.938 76.5805 143.734C75.8485 143.542 75.2485 143.35 74.7805 143.158C74.3245 142.954 73.9285 142.66 73.5925 142.276C73.2685 141.88 73.1065 141.364 73.1065 140.728C73.1065 140.224 73.2565 139.762 73.5565 139.342C73.8565 138.922 74.2825 138.592 74.8345 138.352C75.3865 138.1 76.0165 137.974 76.7245 137.974C77.8165 137.974 78.6985 138.25 79.3705 138.802C80.0425 139.354 80.4025 140.11 80.4505 141.07H78.8125C78.7765 140.554 78.5665 140.14 78.1825 139.828C77.8105 139.516 77.3065 139.36 76.6705 139.36C76.0825 139.36 75.6145 139.486 75.2665 139.738C74.9185 139.99 74.7445 140.32 74.7445 140.728C74.7445 141.052 74.8465 141.322 75.0505 141.538C75.2665 141.742 75.5305 141.91 75.8425 142.042C76.1665 142.162 76.6105 142.3 77.1745 142.456C77.8825 142.648 78.4585 142.84 78.9025 143.032C79.3465 143.212 79.7245 143.488 80.0365 143.86C80.3605 144.232 80.5285 144.718 80.5405 145.318C80.5405 145.858 80.3905 146.344 80.0905 146.776C79.7905 147.208 79.3645 147.55 78.8125 147.802C78.2725 148.042 77.6485 148.162 76.9405 148.162ZM87.7488 137.956C88.4928 137.956 89.1648 138.118 89.7648 138.442C90.3648 138.754 90.8328 139.228 91.1688 139.864C91.5168 140.5 91.6908 141.274 91.6908 142.186V148H90.0708V142.42C90.0708 141.436 89.8248 140.686 89.3328 140.17C88.8408 139.642 88.1688 139.378 87.3168 139.378C86.4528 139.378 85.7628 139.648 85.2468 140.188C84.7428 140.728 84.4908 141.514 84.4908 142.546V148H82.8528V134.68H84.4908V139.54C84.8148 139.036 85.2588 138.646 85.8228 138.37C86.3988 138.094 87.0408 137.956 87.7488 137.956ZM95.2125 136.534C94.9005 136.534 94.6365 136.426 94.4205 136.21C94.2045 135.994 94.0965 135.73 94.0965 135.418C94.0965 135.106 94.2045 134.842 94.4205 134.626C94.6365 134.41 94.9005 134.302 95.2125 134.302C95.5125 134.302 95.7645 134.41 95.9685 134.626C96.1845 134.842 96.2925 135.106 96.2925 135.418C96.2925 135.73 96.1845 135.994 95.9685 136.21C95.7645 136.426 95.5125 136.534 95.2125 136.534ZM96.0045 138.136V148H94.3665V138.136H96.0045ZM100.434 139.954C100.758 139.39 101.238 138.922 101.874 138.55C102.522 138.166 103.272 137.974 104.124 137.974C105 137.974 105.792 138.184 106.5 138.604C107.22 139.024 107.784 139.618 108.192 140.386C108.6 141.142 108.804 142.024 108.804 143.032C108.804 144.028 108.6 144.916 108.192 145.696C107.784 146.476 107.22 147.082 106.5 147.514C105.792 147.946 105 148.162 104.124 148.162C103.284 148.162 102.54 147.976 101.892 147.604C101.256 147.22 100.77 146.746 100.434 146.182V152.68H98.7962V138.136H100.434V139.954ZM107.13 143.032C107.13 142.288 106.98 141.64 106.68 141.088C106.38 140.536 105.972 140.116 105.456 139.828C104.952 139.54 104.394 139.396 103.782 139.396C103.182 139.396 102.624 139.546 102.108 139.846C101.604 140.134 101.196 140.56 100.884 141.124C100.584 141.676 100.434 142.318 100.434 143.05C100.434 143.794 100.584 144.448 100.884 145.012C101.196 145.564 101.604 145.99 102.108 146.29C102.624 146.578 103.182 146.722 103.782 146.722C104.394 146.722 104.952 146.578 105.456 146.29C105.972 145.99 106.38 145.564 106.68 145.012C106.98 144.448 107.13 143.788 107.13 143.032ZM112.598 139.954C112.922 139.39 113.402 138.922 114.038 138.55C114.686 138.166 115.436 137.974 116.288 137.974C117.164 137.974 117.956 138.184 118.664 138.604C119.384 139.024 119.948 139.618 120.356 140.386C120.764 141.142 120.968 142.024 120.968 143.032C120.968 144.028 120.764 144.916 120.356 145.696C119.948 146.476 119.384 147.082 118.664 147.514C117.956 147.946 117.164 148.162 116.288 148.162C115.448 148.162 114.704 147.976 114.056 147.604C113.42 147.22 112.934 146.746 112.598 146.182V152.68H110.96V138.136H112.598V139.954ZM119.294 143.032C119.294 142.288 119.144 141.64 118.844 141.088C118.544 140.536 118.136 140.116 117.62 139.828C117.116 139.54 116.558 139.396 115.946 139.396C115.346 139.396 114.788 139.546 114.272 139.846C113.768 140.134 113.36 140.56 113.048 141.124C112.748 141.676 112.598 142.318 112.598 143.05C112.598 143.794 112.748 144.448 113.048 145.012C113.36 145.564 113.768 145.99 114.272 146.29C114.788 146.578 115.346 146.722 115.946 146.722C116.558 146.722 117.116 146.578 117.62 146.29C118.136 145.99 118.544 145.564 118.844 145.012C119.144 144.448 119.294 143.788 119.294 143.032ZM123.97 136.534C123.658 136.534 123.394 136.426 123.178 136.21C122.962 135.994 122.854 135.73 122.854 135.418C122.854 135.106 122.962 134.842 123.178 134.626C123.394 134.41 123.658 134.302 123.97 134.302C124.27 134.302 124.522 134.41 124.726 134.626C124.942 134.842 125.05 135.106 125.05 135.418C125.05 135.73 124.942 135.994 124.726 136.21C124.522 136.426 124.27 136.534 123.97 136.534ZM124.762 138.136V148H123.124V138.136H124.762ZM132.36 137.956C133.56 137.956 134.532 138.322 135.276 139.054C136.02 139.774 136.392 140.818 136.392 142.186V148H134.772V142.42C134.772 141.436 134.526 140.686 134.034 140.17C133.542 139.642 132.87 139.378 132.018 139.378C131.154 139.378 130.464 139.648 129.948 140.188C129.444 140.728 129.192 141.514 129.192 142.546V148H127.554V138.136H129.192V139.54C129.516 139.036 129.954 138.646 130.506 138.37C131.07 138.094 131.688 137.956 132.36 137.956ZM143.136 137.974C143.988 137.974 144.732 138.16 145.368 138.532C146.016 138.904 146.496 139.372 146.808 139.936V138.136H148.464V148.216C148.464 149.116 148.272 149.914 147.888 150.61C147.504 151.318 146.952 151.87 146.232 152.266C145.524 152.662 144.696 152.86 143.748 152.86C142.452 152.86 141.372 152.554 140.508 151.942C139.644 151.33 139.134 150.496 138.978 149.44H140.598C140.778 150.04 141.15 150.52 141.714 150.88C142.278 151.252 142.956 151.438 143.748 151.438C144.648 151.438 145.38 151.156 145.944 150.592C146.52 150.028 146.808 149.236 146.808 148.216V146.146C146.484 146.722 146.004 147.202 145.368 147.586C144.732 147.97 143.988 148.162 143.136 148.162C142.26 148.162 141.462 147.946 140.742 147.514C140.034 147.082 139.476 146.476 139.068 145.696C138.66 144.916 138.456 144.028 138.456 143.032C138.456 142.024 138.66 141.142 139.068 140.386C139.476 139.618 140.034 139.024 140.742 138.604C141.462 138.184 142.26 137.974 143.136 137.974ZM146.808 143.05C146.808 142.306 146.658 141.658 146.358 141.106C146.058 140.554 145.65 140.134 145.134 139.846C144.63 139.546 144.072 139.396 143.46 139.396C142.848 139.396 142.29 139.54 141.786 139.828C141.282 140.116 140.88 140.536 140.58 141.088C140.28 141.64 140.13 142.288 140.13 143.032C140.13 143.788 140.28 144.448 140.58 145.012C140.88 145.564 141.282 145.99 141.786 146.29C142.29 146.578 142.848 146.722 143.46 146.722C144.072 146.722 144.63 146.578 145.134 146.29C145.65 145.99 146.058 145.564 146.358 145.012C146.658 144.448 146.808 143.794 146.808 143.05Z" fill="white"/>
</svg>
