<svg width="179" height="199" viewBox="0 0 179 199" fill="none" xmlns="http://www.w3.org/2000/svg">
<rect x="0.5" width="178" height="199" rx="25" fill="#7743DB"/>
<path d="M77.7492 29.9675C77.1485 30.338 76.7029 30.9132 76.4952 31.5864C76.2874 32.2596 76.3315 32.985 76.6193 33.6282C76.9071 34.2714 77.4191 34.7888 78.0603 35.0843C78.7015 35.3798 79.4284 35.4335 80.1062 35.2353C81.8101 34.3831 83.5619 33.63 85.353 32.9797C88.666 31.8811 87.5422 26.7951 83.8936 27.399C81.768 28.0451 79.7141 28.9057 77.7638 29.9675H77.7492ZM83.1054 68.3484V63.83L89.9066 56.9032C90.2924 56.5248 90.6555 56.1239 90.9939 55.7027C91.2788 55.371 91.5237 55.0071 91.7236 54.6186C91.8874 54.2779 91.9722 53.9049 91.9717 53.5272C91.9873 53.1752 91.9066 52.8256 91.7382 52.5158C91.5726 52.2442 91.313 52.0423 91.0085 51.9483C90.6055 51.8196 90.1835 51.7606 89.7606 51.7736H83.4557V47.2552C84.419 47.037 85.4917 46.8405 86.6811 46.6513C88.0489 46.4554 89.4296 46.363 90.8114 46.3748C92.2057 46.3179 93.5956 46.5663 94.8833 47.1024C95.8221 47.5145 96.5774 48.2546 97.0069 49.1834C97.4562 50.2484 97.6702 51.3973 97.6344 52.5522C97.647 53.4374 97.5189 54.319 97.255 55.1643C96.9988 55.9425 96.6274 56.6782 96.1531 57.3471C95.6297 58.0801 95.0437 58.7666 94.4017 59.3989L90.6363 63.2406H98.2255V68.3338L83.1054 68.3484ZM109.376 68.3484V64.3247H100.298L99.2982 61.8291L105.625 46.5495H111.463L106.099 59.5153H109.39V56.2848L110.478 53.4689H115.097V59.5153H116.863V63.4443L115.097 64.3247V68.3484H109.376ZM66.4894 65.2051C69.1363 70.1273 72.4028 74.6923 76.2095 78.7894C80.6486 83.4306 85.8637 87.2665 91.6214 90.1254C91.8242 90.2336 92.0485 90.2956 92.2781 90.3069C92.5078 90.3183 92.7371 90.2786 92.9495 90.1909C93.653 89.873 94.2838 89.4149 94.8031 88.8449C95.404 88.1925 95.9622 87.5023 96.4742 86.7785C98.9479 83.5334 102.013 79.5025 106.34 81.5179L106.603 81.6562L121.03 89.929L121.176 90.0236C122.06 90.6577 122.771 91.5027 123.244 92.4813C123.717 93.46 123.937 94.5411 123.883 95.6261C123.784 98.1406 123.059 100.591 121.774 102.757C120.181 105.49 117.744 107.636 114.827 108.876C112.097 110.045 109.215 110.827 106.267 111.197C101.882 111.836 97.4081 111.462 93.1904 110.105C88.5611 108.558 84.1475 106.431 80.0552 103.775L79.7268 103.564C77.5814 102.24 75.2754 100.814 73.0205 99.1331C64.7162 92.8976 56.2805 83.8535 50.7856 73.98C46.181 65.6562 43.6634 56.6704 45.0426 48.1138C45.7723 43.4208 47.8229 39.1498 51.3402 36.3267C54.4051 33.8601 58.5426 32.5141 63.8989 32.987C64.2005 33.0061 64.4924 33.1008 64.7475 33.2623C65.0027 33.4238 65.2128 33.647 65.3583 33.9111L74.5822 49.5108C75.2005 50.2141 75.6029 51.0798 75.7413 52.0049C75.8798 52.9299 75.7484 53.8751 75.363 54.7277C74.5518 56.3337 73.3312 57.6988 71.8238 58.6858C71.3203 59.1151 70.7292 59.5371 70.1089 59.9882C68.0438 61.4798 65.6867 63.2115 66.4967 65.2561V65.2051H66.4894ZM123.97 80.9577C123.656 81.5696 123.568 82.2729 123.724 82.9429C123.88 83.6129 124.268 84.2063 124.821 84.6179C125.374 85.0294 126.055 85.2325 126.743 85.1911C127.432 85.1498 128.083 84.8667 128.582 84.3919C128.725 84.2347 128.852 84.0641 128.962 83.8826C130.012 82.0421 130.882 80.1051 131.56 78.0982C131.761 77.4362 131.718 76.7244 131.441 76.0906C131.163 75.4568 130.668 74.9422 130.045 74.6392C129.421 74.3362 128.71 74.2646 128.038 74.4371C127.366 74.6096 126.778 75.015 126.379 75.5807C126.259 75.7733 126.162 75.9783 126.087 76.1919C125.53 77.8431 124.819 79.4387 123.963 80.9577H123.97ZM128.458 65.6271C128.43 66.3237 128.653 67.0072 129.088 67.5535C129.522 68.0998 130.138 68.4724 130.825 68.6037C131.512 68.735 132.223 68.6162 132.829 68.2689C133.435 67.9216 133.896 67.3689 134.128 66.7113C134.183 66.5236 134.22 66.3311 134.238 66.1365C134.391 64.0278 134.362 61.91 134.15 59.8063C134.062 59.1434 133.748 58.5309 133.26 58.0718C132.773 57.6127 132.142 57.335 131.473 57.2855C130.804 57.2359 130.138 57.4176 129.588 57.7998C129.038 58.1821 128.636 58.7416 128.451 59.3843C128.372 59.7202 128.347 60.0666 128.378 60.4102C128.558 62.1435 128.585 63.8892 128.458 65.6271ZM125.598 50.1875C125.966 50.8008 126.547 51.2577 127.231 51.4711C127.915 51.6844 128.654 51.6394 129.307 51.3444C129.96 51.0495 130.481 50.5253 130.772 49.8718C131.062 49.2183 131.101 48.4812 130.881 47.8009C130.013 45.8967 128.985 44.0688 127.809 42.3367C127.618 41.9736 127.352 41.6549 127.03 41.4013C126.707 41.1478 126.334 40.9651 125.935 40.8652C125.536 40.7653 125.121 40.7505 124.716 40.8218C124.311 40.893 123.926 41.0488 123.586 41.2787C123.246 41.5087 122.958 41.8077 122.742 42.1562C122.525 42.5047 122.385 42.8949 122.331 43.3011C122.276 43.7073 122.308 44.1205 122.425 44.5135C122.541 44.9065 122.74 45.2706 123.007 45.5818C123.998 47.0426 124.864 48.5832 125.598 50.1875ZM115.71 37.9201C118.753 40.1393 122.278 35.7373 119.198 33.2999C117.522 32.0476 115.748 30.9308 113.893 29.9602C110.916 28.4104 108.019 32.4631 110.697 34.7478C110.857 34.8792 111.031 34.9937 111.215 35.0898C112.787 35.9114 114.29 36.8579 115.71 37.9201ZM101.115 31.721C101.804 31.8218 102.506 31.6738 103.095 31.3038C103.684 30.9337 104.121 30.366 104.327 29.703C104.533 29.04 104.495 28.3254 104.219 27.6881C103.943 27.0509 103.448 26.5329 102.823 26.2276C102.59 26.1215 102.345 26.0457 102.093 26.002C100.019 25.6772 97.9239 25.5094 95.8247 25.5C95.0505 25.5 94.3081 25.8066 93.7607 26.3524C93.2133 26.8982 92.9058 27.6385 92.9058 28.4104C92.9058 29.1823 93.2133 29.9226 93.7607 30.4684C94.3081 31.0142 95.0505 31.3208 95.8247 31.3208C97.6015 31.3351 99.3747 31.4811 101.13 31.7574L101.115 31.721Z" fill="white"/>
<path d="M45.6168 139.218C45.6168 137.994 45.8928 136.896 46.4448 135.924C46.9968 134.94 47.7468 134.172 48.6948 133.62C49.6548 133.068 50.7168 132.792 51.8808 132.792C53.2488 132.792 54.4428 133.122 55.4628 133.782C56.4828 134.442 57.2268 135.378 57.6948 136.59H55.7328C55.3848 135.834 54.8808 135.252 54.2208 134.844C53.5728 134.436 52.7928 134.232 51.8808 134.232C51.0048 134.232 50.2188 134.436 49.5228 134.844C48.8268 135.252 48.2808 135.834 47.8848 136.59C47.4888 137.334 47.2908 138.21 47.2908 139.218C47.2908 140.214 47.4888 141.09 47.8848 141.846C48.2808 142.59 48.8268 143.166 49.5228 143.574C50.2188 143.982 51.0048 144.186 51.8808 144.186C52.7928 144.186 53.5728 143.988 54.2208 143.592C54.8808 143.184 55.3848 142.602 55.7328 141.846H57.6948C57.2268 143.046 56.4828 143.976 55.4628 144.636C54.4428 145.284 53.2488 145.608 51.8808 145.608C50.7168 145.608 49.6548 145.338 48.6948 144.798C47.7468 144.246 46.9968 143.484 46.4448 142.512C45.8928 141.54 45.6168 140.442 45.6168 139.218ZM68.8811 135.636V145.5H67.2431V144.042C66.9311 144.546 66.4931 144.942 65.9291 145.23C65.3771 145.506 64.7651 145.644 64.0931 145.644C63.3251 145.644 62.6351 145.488 62.0231 145.176C61.4111 144.852 60.9251 144.372 60.5651 143.736C60.2171 143.1 60.0431 142.326 60.0431 141.414V135.636H61.6631V141.198C61.6631 142.17 61.9091 142.92 62.4011 143.448C62.8931 143.964 63.5651 144.222 64.4171 144.222C65.2931 144.222 65.9831 143.952 66.4871 143.412C66.9911 142.872 67.2431 142.086 67.2431 141.054V135.636H68.8811ZM75.1387 145.662C74.3827 145.662 73.7047 145.536 73.1047 145.284C72.5047 145.02 72.0307 144.66 71.6827 144.204C71.3347 143.736 71.1427 143.202 71.1067 142.602H72.7987C72.8467 143.094 73.0747 143.496 73.4827 143.808C73.9027 144.12 74.4487 144.276 75.1207 144.276C75.7447 144.276 76.2367 144.138 76.5967 143.862C76.9567 143.586 77.1367 143.238 77.1367 142.818C77.1367 142.386 76.9447 142.068 76.5607 141.864C76.1767 141.648 75.5827 141.438 74.7787 141.234C74.0467 141.042 73.4467 140.85 72.9787 140.658C72.5227 140.454 72.1267 140.16 71.7907 139.776C71.4667 139.38 71.3047 138.864 71.3047 138.228C71.3047 137.724 71.4547 137.262 71.7547 136.842C72.0547 136.422 72.4807 136.092 73.0327 135.852C73.5847 135.6 74.2147 135.474 74.9227 135.474C76.0147 135.474 76.8967 135.75 77.5687 136.302C78.2407 136.854 78.6007 137.61 78.6487 138.57H77.0107C76.9747 138.054 76.7647 137.64 76.3807 137.328C76.0087 137.016 75.5047 136.86 74.8687 136.86C74.2807 136.86 73.8127 136.986 73.4647 137.238C73.1167 137.49 72.9427 137.82 72.9427 138.228C72.9427 138.552 73.0447 138.822 73.2487 139.038C73.4647 139.242 73.7287 139.41 74.0407 139.542C74.3647 139.662 74.8087 139.8 75.3727 139.956C76.0807 140.148 76.6567 140.34 77.1007 140.532C77.5447 140.712 77.9227 140.988 78.2347 141.36C78.5587 141.732 78.7267 142.218 78.7387 142.818C78.7387 143.358 78.5887 143.844 78.2887 144.276C77.9887 144.708 77.5627 145.05 77.0107 145.302C76.4707 145.542 75.8467 145.662 75.1387 145.662ZM83.049 136.986V142.8C83.049 143.28 83.151 143.622 83.355 143.826C83.559 144.018 83.913 144.114 84.417 144.114H85.623V145.5H84.147C83.235 145.5 82.551 145.29 82.095 144.87C81.639 144.45 81.411 143.76 81.411 142.8V136.986H80.133V135.636H81.411V133.152H83.049V135.636H85.623V136.986H83.049ZM91.9097 145.662C90.9857 145.662 90.1457 145.452 89.3897 145.032C88.6457 144.612 88.0577 144.018 87.6257 143.25C87.2057 142.47 86.9957 141.57 86.9957 140.55C86.9957 139.542 87.2117 138.654 87.6437 137.886C88.0877 137.106 88.6877 136.512 89.4437 136.104C90.1997 135.684 91.0457 135.474 91.9817 135.474C92.9177 135.474 93.7637 135.684 94.5197 136.104C95.2757 136.512 95.8697 137.1 96.3017 137.868C96.7457 138.636 96.9677 139.53 96.9677 140.55C96.9677 141.57 96.7397 142.47 96.2837 143.25C95.8397 144.018 95.2337 144.612 94.4657 145.032C93.6977 145.452 92.8457 145.662 91.9097 145.662ZM91.9097 144.222C92.4977 144.222 93.0497 144.084 93.5657 143.808C94.0817 143.532 94.4957 143.118 94.8077 142.566C95.1317 142.014 95.2937 141.342 95.2937 140.55C95.2937 139.758 95.1377 139.086 94.8257 138.534C94.5137 137.982 94.1057 137.574 93.6017 137.31C93.0977 137.034 92.5517 136.896 91.9637 136.896C91.3637 136.896 90.8117 137.034 90.3077 137.31C89.8157 137.574 89.4197 137.982 89.1197 138.534C88.8197 139.086 88.6697 139.758 88.6697 140.55C88.6697 141.354 88.8137 142.032 89.1017 142.584C89.4017 143.136 89.7977 143.55 90.2897 143.826C90.7817 144.09 91.3217 144.222 91.9097 144.222ZM110.983 135.456C111.751 135.456 112.435 135.618 113.035 135.942C113.635 136.254 114.109 136.728 114.457 137.364C114.805 138 114.979 138.774 114.979 139.686V145.5H113.359V139.92C113.359 138.936 113.113 138.186 112.621 137.67C112.141 137.142 111.487 136.878 110.659 136.878C109.807 136.878 109.129 137.154 108.625 137.706C108.121 138.246 107.869 139.032 107.869 140.064V145.5H106.249V139.92C106.249 138.936 106.003 138.186 105.511 137.67C105.031 137.142 104.377 136.878 103.549 136.878C102.697 136.878 102.019 137.154 101.515 137.706C101.011 138.246 100.759 139.032 100.759 140.064V145.5H99.1214V135.636H100.759V137.058C101.083 136.542 101.515 136.146 102.055 135.87C102.607 135.594 103.213 135.456 103.873 135.456C104.701 135.456 105.433 135.642 106.069 136.014C106.705 136.386 107.179 136.932 107.491 137.652C107.767 136.956 108.223 136.416 108.859 136.032C109.495 135.648 110.203 135.456 110.983 135.456ZM126.666 140.19C126.666 140.502 126.648 140.832 126.612 141.18H118.728C118.788 142.152 119.118 142.914 119.718 143.466C120.33 144.006 121.068 144.276 121.932 144.276C122.64 144.276 123.228 144.114 123.696 143.79C124.176 143.454 124.512 143.01 124.704 142.458H126.468C126.204 143.406 125.676 144.18 124.884 144.78C124.092 145.368 123.108 145.662 121.932 145.662C120.996 145.662 120.156 145.452 119.412 145.032C118.68 144.612 118.104 144.018 117.684 143.25C117.264 142.47 117.054 141.57 117.054 140.55C117.054 139.53 117.258 138.636 117.666 137.868C118.074 137.1 118.644 136.512 119.376 136.104C120.12 135.684 120.972 135.474 121.932 135.474C122.868 135.474 123.696 135.678 124.416 136.086C125.136 136.494 125.688 137.058 126.072 137.778C126.468 138.486 126.666 139.29 126.666 140.19ZM124.974 139.848C124.974 139.224 124.836 138.69 124.56 138.246C124.284 137.79 123.906 137.448 123.426 137.22C122.958 136.98 122.436 136.86 121.86 136.86C121.032 136.86 120.324 137.124 119.736 137.652C119.16 138.18 118.83 138.912 118.746 139.848H124.974ZM130.466 137.238C130.754 136.674 131.162 136.236 131.69 135.924C132.23 135.612 132.884 135.456 133.652 135.456V137.148H133.22C131.384 137.148 130.466 138.144 130.466 140.136V145.5H128.828V135.636H130.466V137.238ZM59.3624 165.662C58.6064 165.662 57.9284 165.536 57.3284 165.284C56.7284 165.02 56.2544 164.66 55.9064 164.204C55.5584 163.736 55.3664 163.202 55.3304 162.602H57.0224C57.0704 163.094 57.2984 163.496 57.7064 163.808C58.1264 164.12 58.6724 164.276 59.3444 164.276C59.9684 164.276 60.4604 164.138 60.8204 163.862C61.1804 163.586 61.3604 163.238 61.3604 162.818C61.3604 162.386 61.1684 162.068 60.7844 161.864C60.4004 161.648 59.8064 161.438 59.0024 161.234C58.2704 161.042 57.6704 160.85 57.2024 160.658C56.7464 160.454 56.3504 160.16 56.0144 159.776C55.6904 159.38 55.5284 158.864 55.5284 158.228C55.5284 157.724 55.6784 157.262 55.9784 156.842C56.2784 156.422 56.7044 156.092 57.2564 155.852C57.8084 155.6 58.4384 155.474 59.1464 155.474C60.2384 155.474 61.1204 155.75 61.7924 156.302C62.4644 156.854 62.8244 157.61 62.8724 158.57H61.2344C61.1984 158.054 60.9884 157.64 60.6044 157.328C60.2324 157.016 59.7284 156.86 59.0924 156.86C58.5044 156.86 58.0364 156.986 57.6884 157.238C57.3404 157.49 57.1664 157.82 57.1664 158.228C57.1664 158.552 57.2684 158.822 57.4724 159.038C57.6884 159.242 57.9524 159.41 58.2644 159.542C58.5884 159.662 59.0324 159.8 59.5964 159.956C60.3044 160.148 60.8804 160.34 61.3244 160.532C61.7684 160.712 62.1464 160.988 62.4584 161.36C62.7824 161.732 62.9504 162.218 62.9624 162.818C62.9624 163.358 62.8124 163.844 62.5124 164.276C62.2124 164.708 61.7864 165.05 61.2344 165.302C60.6944 165.542 60.0704 165.662 59.3624 165.662ZM74.0227 155.636V165.5H72.3847V164.042C72.0727 164.546 71.6347 164.942 71.0707 165.23C70.5187 165.506 69.9067 165.644 69.2347 165.644C68.4667 165.644 67.7767 165.488 67.1647 165.176C66.5527 164.852 66.0667 164.372 65.7067 163.736C65.3587 163.1 65.1847 162.326 65.1847 161.414V155.636H66.8047V161.198C66.8047 162.17 67.0507 162.92 67.5427 163.448C68.0347 163.964 68.7067 164.222 69.5587 164.222C70.4347 164.222 71.1247 163.952 71.6287 163.412C72.1327 162.872 72.3847 162.086 72.3847 161.054V155.636H74.0227ZM78.4263 157.454C78.7503 156.89 79.2303 156.422 79.8663 156.05C80.5143 155.666 81.2643 155.474 82.1163 155.474C82.9923 155.474 83.7843 155.684 84.4923 156.104C85.2123 156.524 85.7763 157.118 86.1843 157.886C86.5923 158.642 86.7963 159.524 86.7963 160.532C86.7963 161.528 86.5923 162.416 86.1843 163.196C85.7763 163.976 85.2123 164.582 84.4923 165.014C83.7843 165.446 82.9923 165.662 82.1163 165.662C81.2763 165.662 80.5323 165.476 79.8843 165.104C79.2483 164.72 78.7623 164.246 78.4263 163.682V170.18H76.7883V155.636H78.4263V157.454ZM85.1223 160.532C85.1223 159.788 84.9723 159.14 84.6723 158.588C84.3723 158.036 83.9643 157.616 83.4483 157.328C82.9443 157.04 82.3863 156.896 81.7743 156.896C81.1743 156.896 80.6163 157.046 80.1003 157.346C79.5963 157.634 79.1883 158.06 78.8763 158.624C78.5763 159.176 78.4263 159.818 78.4263 160.55C78.4263 161.294 78.5763 161.948 78.8763 162.512C79.1883 163.064 79.5963 163.49 80.1003 163.79C80.6163 164.078 81.1743 164.222 81.7743 164.222C82.3863 164.222 82.9443 164.078 83.4483 163.79C83.9643 163.49 84.3723 163.064 84.6723 162.512C84.9723 161.948 85.1223 161.288 85.1223 160.532ZM90.5904 157.454C90.9144 156.89 91.3944 156.422 92.0304 156.05C92.6784 155.666 93.4284 155.474 94.2804 155.474C95.1564 155.474 95.9484 155.684 96.6564 156.104C97.3764 156.524 97.9404 157.118 98.3484 157.886C98.7564 158.642 98.9604 159.524 98.9604 160.532C98.9604 161.528 98.7564 162.416 98.3484 163.196C97.9404 163.976 97.3764 164.582 96.6564 165.014C95.9484 165.446 95.1564 165.662 94.2804 165.662C93.4404 165.662 92.6964 165.476 92.0484 165.104C91.4124 164.72 90.9264 164.246 90.5904 163.682V170.18H88.9524V155.636H90.5904V157.454ZM97.2864 160.532C97.2864 159.788 97.1364 159.14 96.8364 158.588C96.5364 158.036 96.1284 157.616 95.6124 157.328C95.1084 157.04 94.5504 156.896 93.9384 156.896C93.3384 156.896 92.7804 157.046 92.2644 157.346C91.7604 157.634 91.3524 158.06 91.0404 158.624C90.7404 159.176 90.5904 159.818 90.5904 160.55C90.5904 161.294 90.7404 161.948 91.0404 162.512C91.3524 163.064 91.7604 163.49 92.2644 163.79C92.7804 164.078 93.3384 164.222 93.9384 164.222C94.5504 164.222 95.1084 164.078 95.6124 163.79C96.1284 163.49 96.5364 163.064 96.8364 162.512C97.1364 161.948 97.2864 161.288 97.2864 160.532ZM105.418 165.662C104.494 165.662 103.654 165.452 102.898 165.032C102.154 164.612 101.566 164.018 101.134 163.25C100.714 162.47 100.504 161.57 100.504 160.55C100.504 159.542 100.72 158.654 101.152 157.886C101.596 157.106 102.196 156.512 102.952 156.104C103.708 155.684 104.554 155.474 105.49 155.474C106.426 155.474 107.272 155.684 108.028 156.104C108.784 156.512 109.378 157.1 109.81 157.868C110.254 158.636 110.476 159.53 110.476 160.55C110.476 161.57 110.248 162.47 109.792 163.25C109.348 164.018 108.742 164.612 107.974 165.032C107.206 165.452 106.354 165.662 105.418 165.662ZM105.418 164.222C106.006 164.222 106.558 164.084 107.074 163.808C107.59 163.532 108.004 163.118 108.316 162.566C108.64 162.014 108.802 161.342 108.802 160.55C108.802 159.758 108.646 159.086 108.334 158.534C108.022 157.982 107.614 157.574 107.11 157.31C106.606 157.034 106.06 156.896 105.472 156.896C104.872 156.896 104.32 157.034 103.816 157.31C103.324 157.574 102.928 157.982 102.628 158.534C102.328 159.086 102.178 159.758 102.178 160.55C102.178 161.354 102.322 162.032 102.61 162.584C102.91 163.136 103.306 163.55 103.798 163.826C104.29 164.09 104.83 164.222 105.418 164.222ZM114.268 157.238C114.556 156.674 114.964 156.236 115.492 155.924C116.032 155.612 116.686 155.456 117.454 155.456V157.148H117.022C115.186 157.148 114.268 158.144 114.268 160.136V165.5H112.63V155.636H114.268V157.238ZM121.343 156.986V162.8C121.343 163.28 121.445 163.622 121.649 163.826C121.853 164.018 122.207 164.114 122.711 164.114H123.917V165.5H122.441C121.529 165.5 120.845 165.29 120.389 164.87C119.933 164.45 119.705 163.76 119.705 162.8V156.986H118.427V155.636H119.705V153.152H121.343V155.636H123.917V156.986H121.343Z" fill="white"/>
</svg>
